# xmcd
# 
# Track frame offsets:
#     150
#     12775
#     31602
#     47875
#     62615
#     78427
#     93875
#     111020
#     126065
#     138942
#     148777
#     168837
#     182627
#     196937
# 
# Disc length: 2792
# 
# Revision: 1
# Processed by: cddbd v1.5.2PL0 Copyright (c) Steve Scherf et al.
# Submitted via: BonkEnc v1.0.8
# 
DISCID=ac0ae60e
DTITLE=Sérgio Reis - Grandes Sucessos de
DYEAR=0
DGENRE=Sertanejo
TTITLE0=Chalana
TTITLE1=Mágoa de Boiadeiro
TTITLE2=Chico Mineiro
TTITLE3=Panela Velha
TTITLE4=Boiadeiro Errante
TTITLE5=Tristeza do Jeca
TTITLE6=Filho Adotivo
TTITLE7=O Menino da Porteira
TTITLE8=Saudade da minha Terra
TTITLE9=Adeus Mariana
TTITLE10=Pinga ni mim
TTITLE11=Rio de lágrimas
TTITLE12=Casamento é uma Gaiola
TTITLE13=Cavalo Preto
EXTD=
EXTT0=
EXTT1=
EXTT2=
EXTT3=
EXTT4=
EXTT5=
EXTT6=
EXTT7=
EXTT8=
EXTT9=
EXTT10=
EXTT11=
EXTT12=
EXTT13=
PLAYORDER=
